<?xml version="1.0" encoding="utf-8"?>
<!-- Generator: Adobe Illustrator 21.1.0, SVG Export Plug-In . SVG Version: 6.00 Build 0)  -->
<svg version="1.1" id="Layer_1" xmlns="http://www.w3.org/2000/svg" xmlns:xlink="http://www.w3.org/1999/xlink" x="0px" y="0px"
	 viewBox="0 0 472.1 78.1" style="enable-background:new 0 0 472.1 78.1;" xml:space="preserve">
<style type="text/css">
	.st0{fill:#1E1E1C;}
	.st1{fill:#09628F;}
</style>
<title>1</title>
<g>
	<path class="st0" d="M189.6,72l-1.9,5H180l12.3-29.1h6.8L211.4,77h-7.6l-1.9-5H189.6z M195.7,56.3l-3.7,9.6h7.5L195.7,56.3z"/>
	<path class="st0" d="M239.3,68.9c0,4.8-3.9,8-10.4,8h-15.1V48h14.3c6.2,0,9.9,3,9.9,7.7c0.1,2.7-1.5,5.2-4,6.3
		C237.3,62.8,239.5,65.7,239.3,68.9z M221,59.8h6c2.7,0,4.2-1.2,4.2-3.1s-1.4-2.8-4.2-2.8h-6V59.8z M228,71c2.9,0,4.2-1.3,4.2-3
		s-1.5-2.7-4.1-2.7H221V71L228,71z"/>
	<path class="st0" d="M256.5,54.5V77h-7.2V54.5H240v-6.4h25.6v6.4H256.5z"/>
	<path class="st0" d="M296.4,62.5c0.1,8.5-6.6,15.4-15,15.6c-8.5,0.1-15.4-6.6-15.6-15c-0.1-8.5,6.6-15.4,15-15.6c0.1,0,0.2,0,0.2,0
		c8.3-0.2,15.2,6.4,15.3,14.6C296.4,62.3,296.4,62.4,296.4,62.5z M289.1,62.5c-0.2-4.4-3.9-7.8-8.4-7.6c-4.4,0.2-7.8,3.9-7.6,8.4
		c0.2,4.3,3.7,7.6,8,7.6c4.5-0.1,8-3.8,8-8.2C289,62.6,289,62.6,289.1,62.5L289.1,62.5z"/>
	<path class="st1" d="M321.3,65h7.4c-0.9,7.5-6.6,12.6-14.5,12.6c-8.7,0-15.3-6.3-15.3-15s6.6-15,15.3-15c7.9,0,13.6,5.1,14.5,12.6
		h-7.4c-0.6-3.5-3.7-6-7.2-5.9c-4.7,0-8,3.5-8,8.3s3.3,8.3,8,8.3C317.6,71,320.7,68.5,321.3,65z"/>
	<path class="st1" d="M339,59.6h12.8v6.1H339v5h14.7V77h-21.9V48.1h21.9v6.2H339V59.6z"/>
	<path class="st1" d="M368.7,48.1c7.5,0,12.2,4.1,12.2,10.6c0,6.8-4.9,11-12.8,11h-3.9V77H357V48.1L368.7,48.1z M368.5,63.3
		c3.2,0,5.2-1.8,5.2-4.7c0-2.6-2-4.2-5.2-4.2h-4.3v8.9H368.5z"/>
	<path class="st1" d="M409.9,68.9c0,4.8-3.9,8-10.4,8h-15.1V48h14.3c6.2,0,10,3,10,7.7c0.1,2.7-1.5,5.2-4,6.3
		C407.8,62.8,410,65.7,409.9,68.9z M391.5,59.8h6c2.7,0,4.2-1.2,4.2-3.1s-1.4-2.8-4.2-2.8h-6V59.8z M398.5,71c2.9,0,4.3-1.3,4.3-3
		s-1.5-2.7-4.1-2.7h-7.1V71L398.5,71z"/>
	<path class="st1" d="M412.6,77h5.6L432,61.1V77h7.2V48.1h-5.5l-13.9,16.3V48.1h-7.2L412.6,77z"/>
	<path class="st1" d="M464.7,65h7.4c-0.9,7.5-6.6,12.6-14.5,12.6c-8.7,0-15.3-6.3-15.3-15s6.6-15,15.3-15c7.9,0,13.6,5.1,14.5,12.6
		h-7.4c-0.6-3.5-3.7-6-7.2-5.9c-4.7,0-8,3.5-8,8.3s3.3,8.3,8,8.3C461.1,71,464.2,68.5,464.7,65z"/>
	<path class="st0" d="M204.7,16.5c-0.5-0.7-1.2-1.4-1.9-1.9c0.4-0.4,0.8-0.9,1.1-1.4c0.3-0.5,0.5-1.1,0.6-1.7
		c0.1-0.6,0.2-1.2,0.2-1.8c0-1.1-0.2-2.1-0.6-3.1c-0.4-0.9-0.9-1.8-1.6-2.5c-0.9-0.9-2-1.6-3.2-2.1c-1.2-0.4-2.5-0.7-3.8-0.7H180
		v29.9h16c1.4,0,2.8-0.2,4.1-0.8c1.2-0.5,2.4-1.2,3.3-2.1c0.9-0.8,1.6-1.9,2.1-3c0.5-1.2,0.8-2.5,0.8-3.8
		C206.3,19.8,205.8,18,204.7,16.5z M187,12.1V7.7h8.2c0.7,0,1.4,0.2,2,0.7c0.4,0.4,0.6,1,0.6,1.6c0,0.6-0.2,1.1-0.5,1.6
		c-0.2,0.2-0.4,0.4-0.6,0.5c-0.2,0.1-0.5,0.2-0.7,0.2H187z M199.4,21.6c0,0.4-0.1,0.9-0.2,1.3c-0.1,0.3-0.3,0.6-0.5,0.9
		c-0.4,0.3-0.8,0.6-1.2,0.8c-0.4,0.2-0.9,0.3-1.4,0.3h-9v-6.4h9.3c0.5,0,0.9,0.1,1.4,0.3c0.4,0.2,0.8,0.5,1.1,0.8
		C199.2,20.1,199.5,20.9,199.4,21.6L199.4,21.6z"/>
	<polygon class="st0" points="303.7,1.3 294.6,14.4 285.3,1.3 278.3,1.3 278.3,31.2 285.1,31.2 285.1,12.7 292.9,23.8 295.8,23.8 
		303.6,12.7 303.6,31.2 310.6,31.2 310.6,1.3 	"/>
	<polygon class="st0" points="322.9,24.7 322.9,18.9 337.8,18.9 337.8,12.4 322.9,12.4 322.9,7.9 339.6,7.9 339.6,1.3 315.9,1.3 
		315.9,31.2 340.2,31.2 340.2,24.7 	"/>
	<path class="st0" d="M370.8,29.7c-0.8-1.4-1.7-2.8-2.6-4.3l-2-3.3c0.5-0.3,0.9-0.6,1.3-0.9c0.7-0.5,1.3-1.2,1.8-1.8
		c1.5-1.9,2.3-4.3,2.2-6.8c0-1.5-0.3-3.1-0.9-4.5c-0.6-1.3-1.4-2.5-2.4-3.5c-1.1-1-2.4-1.9-3.8-2.4c-1.4-0.6-3-0.8-4.5-0.8h-14.8
		v29.9h7v-7.6h7l4.5,7.6h8.1L370.8,29.7z M364.5,12.6c0,0.6-0.1,1.2-0.3,1.8c-0.2,0.6-0.6,1.1-1,1.5c-0.3,0.4-0.8,0.8-1.3,1
		c-0.6,0.3-1.2,0.4-1.9,0.4h-7.9V7.9h7.6c0.7,0,1.4,0.1,2,0.4c0.6,0.3,1.1,0.7,1.5,1.2C364,10.3,364.5,11.4,364.5,12.6L364.5,12.6z"
		/>
	<path class="st0" d="M394.1,1.3h-6.7l-13.3,29.9h7.5l2.3-5.1h13.6l2.3,5.1h7.6L394.1,1.3z M394.8,19.6h-8.1l4-10.2L394.8,19.6z"/>
	<polygon class="st0" points="432.1,1.3 432.1,19.6 417.1,1.3 411,1.3 411,31.2 417.9,31.2 417.9,13 432.8,31.2 439,31.2 439,1.3 	
		"/>
	<path class="st0" d="M457.5,19.1l7.2,0.4v4.2c-0.7,0.4-1.4,0.7-2.2,0.9c-2.2,0.7-4.5,0.6-6.6-0.2c-1-0.4-1.9-1-2.7-1.8
		c-0.8-0.8-1.5-1.7-1.9-2.8c-0.5-1.2-0.7-2.5-0.7-3.7c0-1.2,0.2-2.4,0.6-3.5c0.4-1,1-1.9,1.8-2.7c0.8-0.9,1.8-1.5,2.9-2
		c2.4-0.9,5-0.9,7.4,0c1.2,0.6,2.4,1.4,3.3,2.4l0.7,0.7l4.8-4.7l-0.7-0.7c-1.6-1.6-3.4-2.9-5.5-3.8c-4.1-1.5-8.7-1.5-12.8,0
		c-1.9,0.7-3.6,1.9-5,3.2c-1.5,1.4-2.6,3.1-3.4,4.9c-0.8,1.9-1.2,4-1.2,6.1c0,1.9,0.3,3.8,1,5.6c0.6,1.7,1.5,3.2,2.6,4.6
		c1.4,1.7,3.2,3,5.2,3.9c2.2,1,4.6,1.4,7,1.4c1.5,0,3-0.2,4.4-0.6c1.5-0.4,3-1,4.4-1.7c1.1-0.6,2.1-1.3,3-2.2l0.6-0.5V13h-14.2V19.1
		z"/>
	<path class="st0" d="M272.7,10.2c-0.8-1.9-1.9-3.6-3.3-5c-1.4-1.4-3.1-2.5-5-3.2c-1.6-0.7-3.4-1-5.1-1.1h-1.9l0,0
		c-3.7,0.2-7.2,1.6-10.1,4l-2.6-2.6v10h10l-2.7-2.7c1.8-1.4,4-2.2,6.3-2.2l0,0c2.3,0,4.6,1,6.2,2.7c0.7,0.8,1.3,1.7,1.7,2.7
		c0.4,1.1,0.7,2.4,0.6,3.6c0,1.2-0.2,2.4-0.6,3.5c-0.4,1-1,1.9-1.7,2.8c-0.8,0.9-1.8,1.5-2.9,2c-1.4,0.6-3,0.8-4.5,0.6
		c-4.4-0.6-7.7-4.8-11.2-9.5l0,0l-4-5.3c-3.8-4.8-8.4-9-15.1-9.4l-1-0.1h-0.2l-1,0.1c-1.8,0.1-3.7,0.5-5.4,1.2
		c-3.7,1.6-6.7,4.6-8.1,8.4c-0.7,1.9-1.1,3.9-1.1,5.9c0,2,0.4,3.9,1.1,5.7c0.7,1.8,1.7,3.4,3,4.8c1.4,1.5,3.2,2.7,5.1,3.6
		c1.7,0.8,3.5,1.2,5.4,1.3l1,0.1h0.1l1-0.1c3.8-0.4,7.3-2.1,10-4.8l2.9,2.9v-10h-10l2.5,2.5c-1.7,1.8-4.1,2.9-6.6,3
		c-1.2,0-2.4-0.2-3.4-0.7c-1.1-0.5-2-1.1-2.8-2c-0.7-0.8-1.3-1.7-1.7-2.8c-0.4-1.1-0.7-2.3-0.6-3.5c0-1.2,0.2-2.4,0.6-3.5
		c0.4-1,1-2,1.7-2.8c0.8-0.9,1.8-1.5,2.9-2c1.1-0.4,2.2-0.7,3.4-0.7l0,0c5.1,0,8.7,3.7,12.2,8.3l4,5.4c4.1,5.4,8.6,10.4,15.6,10.7
		l0,0h1.6c3.8,0,8.1-2.4,10.4-4.6c1.4-1.4,2.4-3.1,3.1-4.9c1.5-3.9,1.5-8.1,0-12L272.7,10.2z"/>
	<path class="st0" d="M147.9,43.1c-9.5-13.5-30.3-12.8-39.6,1.3c-0.5,1-1.5,1.5-2.6,1.4c-19.1,0-38.2,0-57.3,0
		c-1,0.1-1.9-0.5-2.3-1.3C41.5,37.2,33.4,33,24.8,33.4c-6.3,0-12.3,2.7-16.5,7.3c-1.2,1.3-1.9,3.1-2.9,4.8l-0.9-1.7
		C3.3,41.4,2,39,0.7,36.5c-1.4-2.7-0.8-4.6,1.7-6.1c8.7-5.2,18.2-8.6,28.2-10.3c4.2-0.7,8.5-0.8,12.7-1.3c0.7-0.1,1.4-0.4,2-0.8
		c10.5-9,23.4-14.9,37.1-17c19.2-3.1,37.4,0.8,54.6,9.1c7.2,3.5,14,7.9,21,11.9c1.1,0.6,1.2,1.3,0.8,2.4
		C156.7,31.4,152.9,37.8,147.9,43.1z M142.7,18.9l0.2-0.4c-3.4-1.6-6.8-3.4-10.3-4.9c-7.7-3.5-15.9-6-24.2-7.4
		c-1.3-0.3-2.6,0.1-3.5,1.1c-3.3,3.5-6.8,6.9-10.2,10.3c-0.4,0.4-0.8,0.8-1.3,1.4L142.7,18.9z M99.5,5.1
		c-13.7-0.8-27.3,2.3-39.4,8.8l1.2,0.5c1.4,0.6,2.7,1.4,2.6,3.2s-1.4,2.6-2.9,3.2c-0.3,0.2-0.6,0.3-0.9,0.3
		c-1.8,0.1-3.6,0.2-5.3,0.3c0.4,0.2,0.8,0.4,1.2,0.5c3.2,1,7.3,0.2,8.6-1.9c0.5-0.8,1.4-1.2,2.3-1.1c5.9,0,11.7,0,17.6,0
		c0.9,0,1.7-0.4,2.4-1c3.9-3.8,7.7-7.6,11.5-11.5C98.7,6.1,99,5.7,99.5,5.1z"/>
	<path class="st1" d="M45.4,65.1c-1-0.1-1.9,0.5-2.2,1.4c-4.7,9.7-16.4,13.8-26.1,9.1c-1.7-0.8-3.3-1.9-4.7-3.2
		c-1.4-1.2-2.2-2.6-1.7-4.5c0.9-3.1,4.4-4.1,6.9-1.8c3.7,3.3,7.9,4.3,12.5,2.3c5.8-2.5,8.5-9.2,6-15c-1.1-2.5-3.1-4.6-5.6-5.8
		c-4.4-2.1-8.7-1.4-12.4,1.8c-1.2,1-2.3,1.9-3.9,1.6c-2.3-0.3-3.8-2.4-3.5-4.7c0.1-0.9,0.6-1.8,1.3-2.5c6.9-6.7,17.7-7.5,25.4-1.7
		c2.6,1.9,4.6,4.4,5.9,7.3c0.3,0.9,1.2,1.4,2.1,1.3c21.2,0,42.4,0,63.6,0c1,0.1,1.9-0.5,2.2-1.5c5.4-12,22.2-14.8,31.2-5.4
		c1.2,1.1,1.6,2.7,1.1,4.2c-0.4,1.5-1.6,2.6-3.1,2.8c-1.7,0.4-2.9-0.5-4.1-1.5c-4.7-4.2-11.9-3.8-16.1,0.9c-0.9,1-1.6,2.2-2.1,3.5
		c-1.9,4.9-0.2,10.5,4.1,13.6c4.4,3.1,10.4,2.7,14.4-1.1c2.6-2.4,6.2-1.6,7.1,1.6c0.4,1.6-0.2,3.4-1.5,4.4c-7.8,7.3-20.1,7-27.5-0.8
		c-1.4-1.6-2.6-3.3-3.5-5.1c-0.3-0.8-1.2-1.4-2.1-1.3C103.4,65.1,56.4,65.1,45.4,65.1z"/>
	<path class="st0" d="M25.6,52c3.3-0.1,5.9,2.5,6,5.8c0,0,0,0,0,0.1c0,3.3-2.6,5.9-5.9,6c-3.2,0.1-5.9-2.5-6-5.8c0,0,0-0.1,0-0.1
		c-0.1-3.2,2.4-5.9,5.7-6C25.5,52,25.5,52,25.6,52z"/>
	<path class="st0" d="M122.6,57.8c0-3.2,2.5-5.8,5.7-5.9c0.1,0,0.1,0,0.2,0c3.3,0,5.9,2.7,5.9,5.9c0,0,0,0,0,0.1
		c-0.1,3.3-2.7,5.9-6,5.9C125.2,63.8,122.6,61.2,122.6,57.8C122.6,57.9,122.6,57.8,122.6,57.8z"/>
</g>
</svg>
